<svg xmlns="http://www.w3.org/2000/svg" width="440" height="900" viewBox="0 0 440 900">
  <style>
    text { font-family: -apple-system, "Helvetica Neue", Arial, sans-serif; }
    .node { rx: 10; ry: 10; }
    .label { fill: #e6e6e6; font-size: 14px; font-weight: 600; text-anchor: middle; dominant-baseline: middle; }
    .sub { fill: #999; font-size: 11px; text-anchor: middle; dominant-baseline: middle; }
    .arrow { stroke: #555; stroke-width: 2; fill: none; marker-end: url(#arrowhead); }
    .branch { stroke: #555; stroke-width: 1.5; stroke-dasharray: 6,4; fill: none; marker-end: url(#arrowhead); }
    .branch-label { fill: #888; font-size: 10px; dominant-baseline: middle; }
  </style>
  <defs>
    <marker id="arrowhead" markerWidth="8" markerHeight="6" refX="8" refY="3" orient="auto">
      <polygon points="0 0, 8 3, 0 6" fill="#555"/>
    </marker>
  </defs>

  <!-- Entry -->
  <rect x="130" y="20" width="200" height="48" class="node" fill="#1a2332" stroke="#22c55e" stroke-width="2"/>
  <text x="230" y="44" class="label">POST /process</text>

  <line x1="230" y1="68" x2="230" y2="100" class="arrow"/>

  <!-- Cache Router -->
  <rect x="130" y="100" width="200" height="60" class="node" fill="#1a1a2e" stroke="#a78bfa" stroke-width="2"/>
  <text x="230" y="122" class="label" fill="#a78bfa">Cache Router</text>
  <text x="230" y="142" class="sub">Query SwiftCache</text>

  <!-- Branch: hit → left side -->
  <path d="M 130,130 L 40,130 L 40,195" class="branch"/>
  <text x="48" y="166" class="branch-label" text-anchor="start">hit</text>

  <!-- Return -->
  <rect x="-30" y="195" width="130" height="48" class="node" fill="#1a2332" stroke="#22c55e" stroke-width="2"/>
  <text x="35" y="219" class="label" fill="#22c55e">Return</text>

  <!-- Branch: miss → down -->
  <line x1="230" y1="160" x2="230" y2="200" class="arrow"/>
  <text x="248" y="184" class="branch-label" text-anchor="start">miss</text>

  <!-- OCR -->
  <rect x="130" y="200" width="200" height="60" class="node" fill="#1a2332" stroke="#3b82f6" stroke-width="2"/>
  <text x="230" y="222" class="label" fill="#3b82f6">OCR Node</text>
  <text x="230" y="242" class="sub">MinerU async call</text>

  <line x1="230" y1="260" x2="230" y2="310" class="arrow"/>

  <!-- Quality Check -->
  <rect x="130" y="310" width="200" height="60" class="node" fill="#1a2332" stroke="#3b82f6" stroke-width="2"/>
  <text x="230" y="332" class="label" fill="#3b82f6">Quality Check</text>
  <text x="230" y="352" class="sub">LLM score 0–1</text>

  <line x1="230" y1="370" x2="230" y2="420" class="arrow"/>

  <!-- Rewrite -->
  <rect x="130" y="420" width="200" height="60" class="node" fill="#1a2332" stroke="#3b82f6" stroke-width="2"/>
  <text x="230" y="442" class="label" fill="#3b82f6">Rewrite</text>
  <text x="230" y="462" class="sub">N variants by complexity (2-5)</text>

  <line x1="230" y1="480" x2="230" y2="530" class="arrow"/>

  <!-- Parallel label -->
  <text x="230" y="522" class="branch-label" text-anchor="middle">parallel</text>

  <!-- Verify -->
  <rect x="60" y="540" width="155" height="60" class="node" fill="#1a2332" stroke="#f59e0b" stroke-width="2"/>
  <text x="137" y="562" class="label" fill="#f59e0b">SymPy Verify</text>
  <text x="137" y="582" class="sub">math correctness</text>

  <!-- Evaluate -->
  <rect x="235" y="540" width="155" height="60" class="node" fill="#1a2332" stroke="#f59e0b" stroke-width="2"/>
  <text x="312" y="562" class="label" fill="#f59e0b">LLM Evaluate</text>
  <text x="312" y="582" class="sub">quality scoring</text>

  <!-- Merge -->
  <line x1="137" y1="600" x2="137" y2="640" class="arrow"/>
  <line x1="312" y1="600" x2="312" y2="640" class="arrow"/>
  <line x1="137" y1="640" x2="312" y2="640" stroke="#555" stroke-width="1.5"/>
  <line x1="230" y1="640" x2="230" y2="680" class="arrow"/>

  <!-- Write Cache -->
  <rect x="130" y="680" width="200" height="60" class="node" fill="#1a2332" stroke="#22c55e" stroke-width="2"/>
  <text x="230" y="702" class="label" fill="#22c55e">Write Cache</text>
  <text x="230" y="722" class="sub">Store in SwiftCache</text>

  <line x1="230" y1="740" x2="230" y2="790" class="arrow"/>

  <!-- Final Output -->
  <rect x="130" y="790" width="200" height="48" class="node" fill="#1a2332" stroke="#22c55e" stroke-width="2"/>
  <text x="230" y="814" class="label" fill="#22c55e">Return Result</text>
</svg>
