<svg xmlns="http://www.w3.org/2000/svg" width="420" height="820" viewBox="0 0 420 820">
  <style>
    text { font-family: -apple-system, "PingFang SC", "Microsoft YaHei", sans-serif; }
    .node { rx: 10; ry: 10; }
    .label { fill: #e6e6e6; font-size: 14px; font-weight: 600; text-anchor: middle; dominant-baseline: middle; }
    .sub { fill: #999; font-size: 11px; text-anchor: middle; dominant-baseline: middle; }
    .arrow { stroke: #555; stroke-width: 2; fill: none; marker-end: url(#arrowhead); }
    .branch { stroke: #555; stroke-width: 1.5; stroke-dasharray: 6,4; fill: none; marker-end: url(#arrowhead); }
    .branch-label { fill: #888; font-size: 10px; text-anchor: middle; dominant-baseline: middle; }
  </style>
  <defs>
    <marker id="arrowhead" markerWidth="8" markerHeight="6" refX="8" refY="3" orient="auto">
      <polygon points="0 0, 8 3, 0 6" fill="#555"/>
    </marker>
  </defs>

  <!-- 请求入口 -->
  <rect x="110" y="20" width="200" height="48" class="node" fill="#1a2332" stroke="#22c55e" stroke-width="2"/>
  <text x="210" y="44" class="label">POST /process</text>

  <!-- Arrow -->
  <line x1="210" y1="68" x2="210" y2="98" class="arrow"/>

  <!-- 缓存路由 -->
  <rect x="110" y="98" width="200" height="60" class="node" fill="#1a1a2e" stroke="#a78bfa" stroke-width="2"/>
  <text x="210" y="120" class="label" fill="#a78bfa">缓存路由</text>
  <text x="210" y="140" class="sub">查询 SwiftCache</text>

  <!-- Branch: 命中 (left) -->
  <path d="M 110,128 L 50,128 L 50,230" class="branch"/>
  <text x="56" y="180" class="branch-label" text-anchor="start">命中</text>

  <!-- 直接返回 (left) -->
  <rect x="10" y="230" width="130" height="48" class="node" fill="#1a2332" stroke="#22c55e" stroke-width="2"/>
  <text x="75" y="254" class="label" fill="#22c55e">直接返回</text>

  <!-- Branch: 未命中 (down) -->
  <line x1="210" y1="158" x2="210" y2="200" class="arrow"/>
  <text x="230" y="183" class="branch-label" text-anchor="start">未命中</text>

  <!-- OCR 识图 -->
  <rect x="110" y="200" width="200" height="60" class="node" fill="#1a2332" stroke="#3b82f6" stroke-width="2"/>
  <text x="210" y="222" class="label" fill="#3b82f6">OCR 识图</text>
  <text x="210" y="242" class="sub">MinerU 异步调用</text>

  <!-- Arrow -->
  <line x1="210" y1="260" x2="210" y2="300" class="arrow"/>

  <!-- 质量检测 -->
  <rect x="110" y="300" width="200" height="60" class="node" fill="#1a2332" stroke="#3b82f6" stroke-width="2"/>
  <text x="210" y="322" class="label" fill="#3b82f6">质量检测</text>
  <text x="210" y="342" class="sub">LLM 打分 0–1</text>

  <!-- Arrow -->
  <line x1="210" y1="360" x2="210" y2="400" class="arrow"/>

  <!-- 改写生成 -->
  <rect x="110" y="400" width="200" height="60" class="node" fill="#1a2332" stroke="#3b82f6" stroke-width="2"/>
  <text x="210" y="422" class="label" fill="#3b82f6">改写生成</text>
  <text x="210" y="442" class="sub">动态生成 N 个变体 (2-5)</text>

  <!-- Arrow -->
  <line x1="210" y1="460" x2="210" y2="500" class="arrow"/>

  <!-- 验证 + 评分 (parallel) -->
  <rect x="60" y="500" width="140" height="60" class="node" fill="#1a2332" stroke="#f59e0b" stroke-width="2"/>
  <text x="130" y="522" class="label" fill="#f59e0b">SymPy 验证</text>
  <text x="130" y="542" class="sub">数学正确性</text>

  <rect x="220" y="500" width="140" height="60" class="node" fill="#1a2332" stroke="#f59e0b" stroke-width="2"/>
  <text x="290" y="522" class="label" fill="#f59e0b">LLM 评分</text>
  <text x="290" y="542" class="sub">质量打分</text>

  <!-- Parallel label -->
  <text x="210" y="490" class="branch-label">并行执行</text>

  <!-- Arrows from both to merge -->
  <line x1="130" y1="560" x2="130" y2="590" class="arrow"/>
  <line x1="290" y1="560" x2="290" y2="590" class="arrow"/>
  <line x1="130" y1="590" x2="290" y2="590" stroke="#555" stroke-width="1.5"/>
  <line x1="210" y1="590" x2="210" y2="620" class="arrow"/>

  <!-- 写入缓存 -->
  <rect x="110" y="620" width="200" height="60" class="node" fill="#1a2332" stroke="#22c55e" stroke-width="2"/>
  <text x="210" y="642" class="label" fill="#22c55e">写入缓存</text>
  <text x="210" y="662" class="sub">结果存入 SwiftCache</text>

  <!-- Arrow -->
  <line x1="210" y1="680" x2="210" y2="720" class="arrow"/>

  <!-- 最终输出 -->
  <rect x="110" y="720" width="200" height="48" class="node" fill="#1a2332" stroke="#22c55e" stroke-width="2"/>
  <text x="210" y="744" class="label" fill="#22c55e">返回结果</text>
</svg>
